<?xml version="1.0" encoding="UTF-8" standalone="no"?>
<!-- Created with Inkscape (http://www.inkscape.org/) -->

<svg
   xmlns:dc="http://purl.org/dc/elements/1.1/"
   xmlns:cc="http://creativecommons.org/ns#"
   xmlns:rdf="http://www.w3.org/1999/02/22-rdf-syntax-ns#"
   xmlns:svg="http://www.w3.org/2000/svg"
   xmlns="http://www.w3.org/2000/svg"
   xmlns:sodipodi="http://sodipodi.sourceforge.net/DTD/sodipodi-0.dtd"
   xmlns:inkscape="http://www.inkscape.org/namespaces/inkscape"
   id="svg4182"
   version="1.1"
   inkscape:version="0.91 r13725"
   width="852.1875"
   height="1438.125"
   viewBox="0 0 852.1875 1438.125"
   sodipodi:docname="Bucket2.svg">
  <metadata
     id="metadata4188">
    <rdf:RDF>
      <cc:Work
         rdf:about="">
        <dc:format>image/svg+xml</dc:format>
        <dc:type
           rdf:resource="http://purl.org/dc/dcmitype/StillImage" />
        <dc:title></dc:title>
      </cc:Work>
    </rdf:RDF>
  </metadata>
  <defs
     id="defs4186" />
  <sodipodi:namedview
     pagecolor="#ffffff"
     bordercolor="#666666"
     borderopacity="1"
     objecttolerance="10"
     gridtolerance="10"
     guidetolerance="10"
     inkscape:pageopacity="0"
     inkscape:pageshadow="2"
     inkscape:window-width="1600"
     inkscape:window-height="837"
     id="namedview4184"
     showgrid="false"
     inkscape:zoom="0.4658844"
     inkscape:cx="426.09375"
     inkscape:cy="719.0625"
     inkscape:window-x="-8"
     inkscape:window-y="-8"
     inkscape:window-maximized="1"
     inkscape:current-layer="svg4182" />
  <path
     style="fill:#000000"
     d="m 430.3125,1437.8347 c -0.25781,-0.2615 -10.38281,-0.7653 -22.5,-1.1197 -12.11719,-0.3544 -22.28971,-0.804 -22.6056,-0.9992 -0.31589,-0.1951 -7.80176,-0.5681 -16.63526,-0.8289 -8.83351,-0.2608 -18.70005,-0.8946 -21.92565,-1.4083 -3.22561,-0.5139 -9.0288,-1.1743 -12.89599,-1.4678 -11.62432,-0.8821 -32.00347,-3.4313 -48.75,-6.098 -27.29905,-4.3471 -26.73253,-4.2128 -61.74918,-14.6426 -4.31361,-1.2847 -9.58705,-2.2339 -11.71875,-2.1091 -4.4374,0.2597 -9.7137,-1.2698 -15.12582,-4.3849 -2.0625,-1.1871 -6.91406,-3.005 -10.78125,-4.0399 -12.82516,-3.4319 -30.7638,-11.4298 -40.3125,-17.9733 -1.28906,-0.8833 -6.65288,-3.7964 -11.9196,-6.4735 -5.26672,-2.6772 -12.24787,-7.0507 -15.51367,-9.7191 -3.2658,-2.6684 -7.39417,-5.861 -9.17415,-7.0946 -1.77998,-1.2336 -4.86404,-4.1867 -6.85347,-6.5625 -1.989419,-2.3757 -5.761619,-5.8207 -8.382671,-7.6555 -2.621047,-1.8346 -6.137398,-5.4206 -7.81411,-7.9687 -1.676713,-2.548 -4.119561,-5.9477 -5.428552,-7.5547 -6.98295,-8.5727 -8.790311,-16.5004 -7.715315,-33.8423 1.348743,-21.7579 3.039799,-30.3483 7.15022,-36.3226 2.579431,-3.7491 5.35307,-13.7142 4.294063,-15.4277 -0.58979,-0.9544 -2.277404,-12.896 -2.79346,-19.7668 -0.174275,-2.3203 -0.818727,-9.4922 -1.432113,-15.9375 -0.613387,-6.4453 -1.267165,-13.6172 -1.45284,-15.9375 -0.590491,-7.3792 -2.253596,-24.5386 -3.27108,-33.75 -0.541075,-4.8984 -1.811569,-17.3437 -2.823321,-27.6562 -1.011751,-10.3125 -2.252767,-22.336 -2.757811,-26.7188 -0.505045,-4.3828 -1.175391,-11.5547 -1.489658,-15.9375 -0.314266,-4.3828 -1.210648,-13.2422 -1.991957,-19.6875 -1.588063,-13.1005 -2.531638,-22.3528 -3.967777,-38.9062 -0.916774,-10.5671 -3.047914,-32.72424 -4.779086,-49.68755 -0.936781,-9.17925 -3.259149,-33.26109 -4.791686,-49.6875 -0.625382,-6.70312 -1.465979,-14.71875 -1.867994,-17.8125 -0.852262,-6.55869 -1.353474,-11.05117 -3.295631,-29.53951 -1.022899,-9.73747 -1.153703,-14.32573 -0.460392,-16.14928 0.747133,-1.9651 0.560807,-3.82335 -0.815283,-8.13089 -0.981063,-3.07099 -2.040911,-9.48107 -2.355217,-14.24462 -0.314306,-4.76355 -0.810432,-9.04765 -1.1025,-9.52023 -0.292068,-0.47258 -0.909241,-5.56876 -1.371495,-11.32485 C 40.157605,811.56437 39.722833,807.13804 38.312309,795 37.743076,790.10156 36.929962,781.24219 36.505387,775.3125 36.080812,769.38281 35.038588,760.73437 34.189335,756.09375 33.340082,751.45312 32.50097,743.64844 32.324641,738.75 c -0.176328,-4.89844 -0.741316,-10.80469 -1.255529,-13.125 -0.514213,-2.32031 -1.212042,-7.80469 -1.550732,-12.1875 -0.929377,-12.02661 -3.028974,-27.91716 -3.867329,-29.26942 -0.408952,-0.65963 -0.82908,-5.62902 -0.93362,-11.04308 -0.104539,-5.41406 -0.489224,-13.44648 -0.854854,-17.8498 l -0.664783,-8.00607 -8.334642,-8.86893 C 5.6673225,628.61485 -7.7987567e-4,619.01673 0.00110439,613.23341 0.00451764,602.75723 3.9446949,591.36315 9.8262,584.8215 c 2.201835,-2.44898 4.945111,-6.45622 6.096168,-8.90498 1.151057,-2.44877 3.981843,-6.11508 6.290636,-8.14737 2.308793,-2.03227 4.556573,-4.63868 4.995067,-5.792 0.570181,-1.49969 2.518912,-2.66989 6.841909,-4.10848 3.324557,-1.10635 6.818985,-2.86717 7.765394,-3.91294 0.94641,-1.04577 4.720364,-3.28731 8.386564,-4.9812 4.176004,-1.92943 7.440363,-4.16755 8.739458,-5.99196 1.382835,-1.94201 3.178764,-3.11947 5.390971,-3.53449 3.59931,-0.67523 4.923707,-2.48839 3.271638,-4.47901 -0.635163,-0.76532 -0.81744,-2.9046 -0.465971,-5.46885 0.437793,-3.19405 0.09331,-5.30592 -1.425618,-8.7397 -2.191509,-4.95427 -2.203306,-98.20499 -0.01411,-111.54177 0.507831,-3.09375 1.281794,-11.53125 1.71992,-18.75 0.438126,-7.21875 1.288563,-14.3652 1.889861,-15.88101 0.601298,-1.5158 1.907445,-9.32049 2.902549,-17.34375 5.757884,-46.42431 18.684399,-95.46713 33.744383,-128.02524 0.95403,-2.0625 2.83172,-7.17847 4.17265,-11.36882 1.34094,-4.19035 3.26702,-8.36901 4.2802,-9.28593 1.02557,-0.92813 1.84213,-2.87391 1.84213,-4.38963 0,-1.49739 0.38888,-2.48218 0.8642,-2.18842 0.47531,0.29376 6.85234,-9.06807 14.17118,-20.80405 7.31885,-11.73598 14.31277,-22.41592 15.54205,-23.7332 1.22929,-1.31727 2.23507,-2.91415 2.23507,-3.54861 0,-2.92367 7.10613,-11.64775 12.56694,-15.42823 1.34202,-0.92907 2.44796,-2.61066 2.46628,-3.75 0.0677,-4.2069 16.19097,-22.72748 22.70115,-26.07646 1.9336,-0.99467 3.51563,-2.36948 3.51563,-3.05511 0,-0.68563 2.53125,-3.44821 5.625,-6.139081 3.09375,-2.690859 5.625,-5.405259 5.625,-6.03199 0,-1.678857 9.47658,-10.611516 12.08961,-11.395705 1.23521,-0.370699 3.9774,-2.259928 6.09375,-4.198287 2.11634,-1.93836 6.1682,-4.677231 9.00414,-6.08638 2.83594,-1.409149 7.05469,-4.132986 9.375,-6.05297 2.32031,-1.919985 5.48438,-4.288581 7.03125,-5.263546 3.19259,-2.012228 17.06127,-12.240959 22.08902,-16.291573 9.98465,-8.044149 22.99656,-15.000904 35.9925,-19.243206 3.84221,-1.254226 8.58787,-3.12357 10.54592,-4.154098 1.95803,-1.030527 7.98975,-3.203995 13.40381,-4.829927 5.41406,-1.625934 11.10937,-3.546272 12.65625,-4.267419 2.62893,-1.225598 8.38136,-2.9945938 16.63796,-5.1165296 18.8681,-4.849078 66.80633,-7.7895975 91.17454,-5.59262393 25.89878,2.33496583 31.51886,2.95438473 38.4375,4.23640343 4.125,0.7643596 11.29687,2.006803 15.9375,2.7609853 7.68477,1.2489092 36.19936,9.9711588 38.4375,11.7575428 0.51562,0.411549 4.73437,2.070977 9.375,3.687619 4.64062,1.616643 10.96875,4.167062 14.0625,5.667599 3.09375,1.500538 8.15625,3.831979 11.25,5.180981 3.09375,1.349002 7.70078,3.799453 10.23786,5.445448 2.53706,1.645995 8.13635,4.891155 12.44285,7.211467 6.97036,3.755578 11.15437,6.488663 27.61271,18.03726 9.63481,6.76062 15.05506,11.306844 17.49284,14.672098 1.40972,1.946073 6.28866,6.878682 10.84208,10.961353 10.19686,9.142677 21.10962,21.948179 22.74214,26.686589 0.67133,1.94858 4.53243,7.90362 8.58019,13.23341 9.56445,12.59376 15.63584,22.9606 23.24492,39.69054 9.16243,20.14519 10.88307,23.8342 13.5078,28.96024 1.55533,3.03751 2.82786,6.11013 2.82786,6.82804 0,0.71791 1.09956,3.47518 2.44346,6.12724 1.3439,2.65206 3.07251,6.96225 3.84134,9.5782 0.76884,2.61596 3.64513,10.66253 6.39177,17.88128 5.98298,15.72459 11.69843,33.71133 11.69843,36.81541 0,1.23456 1.01708,5.26863 2.26019,8.96462 1.24312,3.69598 2.53872,9.25122 2.87913,12.34497 1.19714,10.8799 3.35239,22.06091 8.5838,44.53125 0.78029,3.35156 1.82494,10.94531 2.32144,16.875 0.49651,5.92969 1.29805,14.15625 1.78119,18.28125 3.03282,25.89357 5.68081,52.13793 6.21311,61.57864 0.75911,13.46317 1.1853,14.35782 4.98716,10.46917 10.56863,-10.80984 23.43507,2.74189 23.4669,24.7168 0.006,3.8176 0.72646,6.19835 3.28833,10.8591 4.52684,8.23557 3.98012,14.23118 -2.7287,29.9243 -1.99692,4.67117 -1.87989,11.81269 0.30055,18.34094 0.98482,2.94858 2.24371,7.04855 2.7975,9.11105 0.90195,3.35911 1.71558,4.1348 7.80564,7.44157 3.73931,2.03036 10.36824,5.9327 14.73096,8.67187 4.36272,2.73917 8.42252,4.98031 9.02177,4.98031 1.59815,0 9.65775,7.33224 12.74658,11.59626 5.28399,7.29432 2.5687,26.33943 -6.23108,43.70494 -1.33796,2.64035 -2.34947,6.24357 -2.34947,8.36933 0,2.71077 -0.66061,4.44568 -2.41266,6.33617 -1.79998,1.94221 -2.26402,3.20435 -1.82736,4.97017 1.46593,5.92802 1.6364,12.23539 0.37161,13.74934 -0.8849,1.05923 -1.62546,6.85285 -2.36691,18.51705 -1.12835,17.75061 -2.40246,25.92984 -4.56163,29.2837 -0.99673,1.54823 -1.05895,2.73165 -0.27748,5.27792 0.97754,3.18509 -0.0937,8.91641 -3.07304,16.44235 -0.4689,1.18442 -0.85253,4.77315 -0.85253,7.97494 0,3.20181 -0.42157,7.29139 -0.93682,9.08796 -0.51525,1.79658 -1.35113,10.50829 -1.8575,19.35935 -0.50638,8.85105 -1.3465,20.03459 -1.86692,24.8523 -0.52043,4.8177 -1.34911,12.97822 -1.84152,18.13447 -0.49241,5.15625 -1.53567,14.64844 -2.31836,21.09375 -3.03495,24.99232 -4.34604,37.52099 -5.24868,50.15625 -0.5157,7.21875 -1.14253,14.17969 -1.39297,15.46875 -0.25043,1.28906 -0.8846,6.77344 -1.40928,12.1875 -0.52468,5.41406 -1.57384,14.27344 -2.33148,19.6875 -0.75764,5.41406 -2.02713,18.49219 -2.8211,29.0625 -1.4277,19.00753 -4.32854,47.76169 -6.10035,60.4687 -0.50327,3.6094 -1.55993,15.4219 -2.34813,26.2501 -0.78819,10.8281 -1.81206,23.2734 -2.27523,27.6562 -0.46318,4.3828 -1.70805,15.9844 -2.76637,25.7813 -1.05833,9.7968 -3.0314,28.7812 -4.3846,42.1875 -1.3532,13.4062 -2.85226,27.9609 -3.33124,32.3437 -0.47898,4.3828 -1.07734,12.1875 -1.32969,17.3438 -0.25234,5.1562 -0.86921,11.9062 -1.3708,15 -0.81839,5.0477 -2.6263,21.8195 -3.2882,30.5043 -0.13904,1.8242 -0.73267,5.6284 -1.31921,8.4537 -2.42474,11.68 -1.82326,22.3338 1.60218,28.3786 3.74297,6.6052 6.70546,15.6914 6.77782,20.7884 0.0293,2.0625 0.66119,5.4375 1.40424,7.5 4.53144,12.5781 -4.13153,35.2573 -19.67136,51.4985 -4.40656,4.6055 -8.01193,8.6844 -8.01193,9.0641 0,0.3799 -1.58203,1.6583 -3.51562,2.8409 -1.9336,1.1826 -6.49986,4.74 -10.14725,7.9052 -8.21372,7.1278 -18.39658,13.2587 -24.84847,14.9608 -2.9265,0.7719 -6.08249,2.4425 -7.84912,4.1549 -2.9201,2.8302 -9.98342,5.6223 -29.74899,11.7599 -4.47738,1.3902 -10.25626,3.8907 -12.84194,5.5565 -4.15079,2.6742 -13.10019,6.0515 -30.11111,11.3631 -5.40755,1.6884 -16.57664,4.1296 -30,6.5568 -4.38281,0.7925 -11.76562,2.2843 -16.40625,3.3152 -13.57823,3.0161 -39.91466,7.6518 -45,7.9209 -4.50158,0.2382 -24.39847,3.1847 -35.15625,5.2061 -2.83594,0.5329 -11.27344,1.1528 -18.75,1.3776 -7.47656,0.2247 -20.55469,0.859 -29.0625,1.4094 -26.74001,1.7302 -33.26741,2.0277 -33.75,1.5385 z m 24.375,-10.5792 c 1.28906,-0.3058 9.9375,-0.9286 19.21875,-1.384 27.18143,-1.3338 49.10754,-3.4862 75.9375,-7.4545 3.60937,-0.5338 10.78125,-1.3704 15.9375,-1.8589 5.15625,-0.4886 11.90625,-1.5249 15,-2.3031 3.09375,-0.7781 8.78906,-2.0826 12.65625,-2.8988 3.86719,-0.8163 13.57031,-3.3192 21.5625,-5.5622 7.99219,-2.243 19.06435,-5.1884 24.60481,-6.5453 5.54046,-1.357 16.50921,-4.9119 24.375,-7.8999 7.86579,-2.988 16.62175,-6.1715 19.45769,-7.0744 17.18182,-5.4702 35.68233,-14.0292 41.71875,-19.3005 1.03125,-0.9005 3.72763,-2.5677 5.99197,-3.7048 2.26432,-1.1372 6.53021,-4.4542 9.47975,-7.3714 2.94954,-2.9172 7.66165,-7.2024 10.47136,-9.5227 6.57085,-5.4263 14.94071,-14.813 16.82185,-18.8654 0.80829,-1.7412 2.8139,-5.908 4.45693,-9.2596 2.91068,-5.9375 3.86388,-11.25 2.0185,-11.25 -0.50374,0 -1.61939,1.1602 -2.47922,2.5781 -5.00584,8.2553 -8.81494,13.5295 -13.43467,18.6021 -2.8608,3.1413 -6.51792,7.372 -8.12691,9.4017 -1.60899,2.0296 -5.40358,5.5766 -8.43242,7.8823 -3.02884,2.3056 -9.45212,7.2506 -14.27395,10.9889 -7.27401,5.6395 -9.359,6.7969 -12.24342,6.7969 -2.2837,0 -5.06271,1.006 -8.09991,2.9321 -2.54292,1.6127 -6.17127,3.4782 -8.06301,4.1457 -1.89173,0.6675 -6.34917,2.4906 -9.90542,4.0514 -3.55625,1.5609 -9.2417,3.2814 -12.63433,3.8234 -3.39263,0.5419 -10.21103,2.4487 -15.15201,4.2373 -9.40373,3.4039 -11.05173,4.1756 -16.7606,7.8476 -2.49659,1.6058 -4.36216,2.1172 -6.55167,1.7959 -1.68365,-0.2472 -4.33167,-0.063 -5.8845,0.41 -3.41857,1.0405 -22.97957,1.6455 -22.97957,0.7108 0,-0.365 1.58203,-1.0982 3.51562,-1.6293 1.9336,-0.5312 4.78125,-1.4241 6.32813,-1.9842 9.60349,-3.4776 24.37959,-7.5907 27.26897,-7.5907 13.34046,0 66.99691,-24.0255 81.3083,-36.407 3.37684,-2.9215 8.4759,-6.7883 11.33123,-8.593 5.19847,-3.2857 13.97189,-12.2501 18.37275,-18.7728 1.28906,-1.9106 4.40859,-6.5185 6.93229,-10.2399 4.85538,-7.1597 6.6492,-13.0694 5.62469,-18.5305 -0.91719,-4.889 -1.96561,-4.521 -5.13883,1.8043 -1.62662,3.2423 -4.91037,8.059 -7.2972,10.7036 -5.70527,6.3215 -9.49595,11.5888 -9.49595,13.1949 0,1.7527 -7.75123,9.8808 -13.98316,14.6632 -15.51389,11.9052 -23.88246,16.7751 -37.30084,21.7062 -4.74526,1.7438 -11.75046,4.6726 -15.56712,6.5083 -3.81665,1.8357 -7.52792,3.3418 -8.24725,3.3469 -0.71934,0.01 -3.62819,1.1074 -6.46413,2.4496 -17.01355,8.0526 -100.39359,29.5875 -119.32428,30.8183 -5.55803,0.3614 -12.30803,1.2434 -15,1.9601 -2.69195,0.7167 -6.79291,1.3146 -9.11322,1.3289 -2.32031,0.014 -6.75,0.6369 -9.84375,1.3839 -3.09375,0.747 -8.15625,1.3767 -11.25,1.3993 -3.09375,0.022 -9.21094,0.4437 -13.59375,0.9358 -36.87725,4.1404 -137.98852,2.2956 -154.55188,-2.82 -3.29603,-1.0179 -8.74141,-1.8549 -12.1875,-1.8734 -3.42615,-0.019 -10.02624,-0.6537 -14.66687,-1.412 -4.64062,-0.7584 -10.75781,-1.7594 -13.59375,-2.2243 -2.83594,-0.465 -6.25568,-1.2726 -7.59944,-1.7947 -1.34376,-0.522 -7.67188,-1.8385 -14.0625,-2.9255 -6.39062,-1.0869 -15.20525,-2.7807 -19.58806,-3.764 -4.38281,-0.9834 -9.44531,-2.0503 -11.25,-2.3708 -5.98371,-1.0629 -15.39278,-3.4211 -21.09375,-5.2867 -3.09375,-1.0123 -8.53274,-2.4601 -12.08665,-3.2174 -3.55391,-0.7572 -8.25903,-2.1718 -10.45582,-3.1435 -2.1968,-0.9717 -6.46093,-2.4784 -9.47585,-3.348 -13.22028,-3.8134 -35.54198,-16.2382 -60.65304,-33.7611 -20.20052,-14.0962 -32.883824,-30.9591 -37.103727,-49.3307 -2.699025,-11.7505 -2.75856,-11.9076 -3.85474,-10.1743 -2.351612,3.7185 -0.31307,25.1588 2.707899,28.4803 0.981602,1.0792 2.297077,3.5618 2.923278,5.5169 0.626202,1.955 3.351875,5.9628 6.05705,8.9062 2.70518,2.9434 5.30338,6.024 5.7738,6.8457 1.7331,3.0276 21.28213,20.5731 27.60766,24.7783 3.59089,2.3872 6.52889,4.7298 6.52889,5.2059 0,1.3728 -3.13122,1.0067 -5.48394,-0.6413 -1.18313,-0.8286 -5.57799,-3.4021 -9.76636,-5.7189 -10.16489,-5.6226 -25.240212,-19.7109 -32.144529,-30.0399 -2.843469,-4.2539 -5.548816,-7.7344 -6.011882,-7.7344 -4.069293,0 0.294861,13.3687 7.543372,23.1074 1.975645,2.6544 3.869602,5.9319 4.208798,7.2833 0.740541,2.9506 7.773221,9.1898 13.304231,11.8031 2.19639,1.0378 5.59509,3.4885 7.55266,5.446 1.95758,1.9576 5.43397,4.6254 7.72531,5.9284 2.29135,1.303 5.85359,3.362 7.91609,4.5755 7.07659,4.1635 24.41203,12.8184 28.13799,14.0481 2.04998,0.6765 7.31536,2.8892 11.70087,4.9171 9.00797,4.1653 18.57528,7.7138 23.44239,8.6949 1.80469,0.3638 5.39063,1.6675 7.96875,2.8971 4.74245,2.262 32.72492,9.7366 36.45046,9.7366 1.11169,0 6.65418,1.0647 12.31664,2.3661 5.66247,1.3014 15.56884,3.429 22.01415,4.728 6.44531,1.299 15.09375,3.1711 19.21875,4.1605 4.125,0.9893 15.09375,2.45 24.375,3.2458 9.28125,0.7958 20.46094,2.1016 24.84375,2.9018 7.97869,1.4566 28.99997,2.8789 56.24128,3.8053 7.98739,0.2716 14.66117,0.6324 14.83061,0.8019 0.51854,0.5185 37.98887,-0.4105 40.49061,-1.0039 z m -13.59375,-33.7561 c 10.3125,-0.2822 30.14062,-1.6019 44.0625,-2.9324 13.92187,-1.3304 29.32031,-2.5376 34.21875,-2.6825 13.84081,-0.4096 35.83312,-4.4301 69.375,-12.6825 6.44531,-1.5858 17.20312,-4.0629 23.90625,-5.5046 6.70312,-1.4417 15.5625,-3.9437 19.6875,-5.56 4.125,-1.6163 11.29687,-3.9477 15.9375,-5.1808 7.09168,-1.8845 35.64998,-13.3008 39.67044,-15.8584 0.98797,-0.6285 0.91184,-1.1391 -0.38317,-2.5701 -1.40885,-1.5568 -1.48062,-2.4166 -0.55963,-6.7038 0.58107,-2.705 1.24945,-7.6602 1.48529,-11.0118 0.80955,-11.5049 5.03015,-59.4822 7.17511,-81.5625 0.42576,-4.3828 1.43192,-18.9375 2.23591,-32.3437 0.80398,-13.4063 1.6949,-24.99 1.97983,-25.7416 0.28491,-0.7516 0.71269,-5.3923 0.95059,-10.3125 0.45322,-9.3734 3.11232,-42.1645 5.55297,-68.4772 0.78915,-8.5078 1.87936,-21.5859 2.42268,-29.0625 0.54333,-7.4766 1.36873,-18.8672 1.83422,-25.3125 0.46549,-6.4453 1.28645,-16.3594 1.82435,-22.0312 0.5379,-5.6719 1.39425,-16.6407 1.90298,-24.375 0.50875,-7.73442 1.33036,-18.70317 1.82581,-24.37505 1.85172,-21.19819 2.89286,-34.31447 4.31615,-54.375 0.80484,-11.34375 1.86338,-25.05469 2.35229,-30.46875 0.48893,-5.41406 1.30431,-15.16284 1.81196,-21.66397 0.50766,-6.50112 1.59706,-18.73549 2.4209,-27.1875 0.82383,-8.452 1.85155,-20.85165 2.28383,-27.55478 0.99681,-15.45742 2.62453,-35.42664 3.29097,-40.37445 0.59213,-4.39619 4.34593,-49.90504 4.75066,-57.5943 2.73385,-51.93917 2.63462,-53.38849 -3.52222,-51.44058 l -4.05942,1.28433 -0.7988,7.03125 c -0.43934,3.86719 -0.93191,9.77344 -1.09459,13.125 -0.1627,3.35156 -0.72445,10.10156 -1.24834,15 -0.52389,4.89844 -1.62084,18.60937 -2.43767,30.46875 -0.81682,11.85937 -1.92877,25.14844 -2.47099,29.53125 -0.54221,4.38281 -1.33253,14.92969 -1.75627,23.4375 -0.42373,8.50781 -1.22553,20.53125 -1.78177,26.71875 -0.55624,6.1875 -1.45387,17.15625 -1.99475,24.375 -0.54088,7.21875 -1.40842,18.39844 -1.92787,24.84375 -1.77156,21.98117 -3.86164,51.07197 -4.61392,64.21875 -0.41306,7.21875 -1.0014,13.75781 -1.3074,14.53125 -0.306,0.77344 -1.02874,9.63281 -1.60609,19.6875 -0.57735,10.05469 -1.18286,19.54687 -1.34559,21.09375 -0.16273,1.54688 -0.76783,9.98438 -1.34467,18.74995 -0.57685,8.7657 -1.24887,17.2032 -1.49341,18.75 -0.24453,1.5469 -0.86177,9.5626 -1.37165,17.8126 -1.95622,31.6522 -3.7295,56.4165 -4.32997,60.4687 -0.34383,2.3203 -0.7084,6.75 -0.81014,9.8438 -0.10176,3.0937 -1.09511,16.5937 -2.20744,30 -1.11234,13.4062 -2.43895,31.125 -2.94804,39.375 -1.53421,24.8631 -3.6902,54.6879 -4.73928,65.5607 -1.1452,11.8689 -2.84179,35.3658 -3.2842,45.4844 -0.73061,16.7102 -4.42156,43.5535 -6.68517,48.6194 -3.57516,8.0012 -6.56639,-1.4381 -3.64271,-11.4952 0.80271,-2.7612 1.46355,-8.3305 1.46852,-12.3761 0.007,-6.3995 1.88445,-39.4135 3.26912,-57.512 0.25641,-3.3516 0.89003,-11.7891 1.40804,-18.75 0.518,-6.9609 1.16576,-15.1875 1.43944,-18.2813 0.27369,-3.0937 0.69356,-8.5781 0.93304,-12.1875 1.45833,-21.9793 4.33834,-61.7345 5.19556,-71.7187 0.55338,-6.4453 1.38967,-17.2031 1.85842,-23.9063 2.02131,-28.9049 2.65149,-37.7194 4.12201,-57.6562 0.85573,-11.6016 1.9377,-23.8359 2.4044,-27.1875 0.4667,-3.3516 1.3005,-14.5313 1.8529,-24.8438 0.55239,-10.31245 1.59375,-26.13276 2.31412,-35.1562 0.72038,-9.02344 1.777,-23.15625 2.34806,-31.40625 0.57106,-8.25 1.45014,-19.64063 1.95349,-25.3125 0.91328,-10.29098 4.20768,-52.72505 6.98721,-90 0.80744,-10.82813 1.86646,-23.0625 2.35338,-27.1875 0.93779,-7.94444 2.3882,-28.01519 3.75983,-52.02833 0.45642,-7.99058 1.09202,-15.57285 1.41244,-16.84951 0.32042,-1.27665 0.75384,-5.49672 0.96317,-9.37793 0.59876,-11.10232 2.06838,-24.20149 3.63156,-32.36923 2.40486,-12.56561 2.05324,-13.27693 -5.826,-11.786 -2.43126,0.46005 -7.58454,1.33178 -11.45173,1.93718 -3.86719,0.60539 -9.5625,1.6732 -12.65625,2.37291 -3.09375,0.69972 -10.6875,1.74924 -16.875,2.33227 -6.1875,0.58303 -15.67969,1.68864 -21.09375,2.45691 -5.41406,0.76828 -11.53125,1.56192 -13.59375,1.76366 -2.0625,0.20174 -6.70313,0.79555 -10.3125,1.31959 -19.96183,2.89819 -62.78948,6.50291 -84.84375,7.14112 -7.47656,0.21636 -19.28906,0.63858 -26.25,0.93827 -35.68822,1.53651 -86.91626,2.06723 -103.59375,1.07325 -6.70313,-0.39951 -25.05469,-0.92949 -40.78125,-1.17774 -15.72656,-0.24825 -32.57862,-0.90317 -37.44902,-1.45538 -4.8704,-0.55221 -14.9954,-0.90295 -22.5,-0.77943 -22.8804,0.37661 -57.06652,-0.96629 -64.63378,-2.53895 -4.13602,-0.85956 -13.2007,-1.54804 -22.5,-1.70891 -8.56539,-0.14817 -17.81823,-0.78061 -20.56183,-1.4054 -2.74361,-0.6248 -5.79121,-0.92606 -6.77244,-0.66946 -0.98122,0.25659 -3.57014,0.0652 -5.75313,-0.42526 -2.18301,-0.49049 -10.94792,-1.08141 -19.47758,-1.31316 -15.33451,-0.41664 -23.86073,-1.26177 -25.987,-2.57587 -0.60236,-0.37228 -3.13174,-1.08588 -5.62084,-1.58578 -2.4891,-0.49989 -8.32251,-1.7286 -12.96313,-2.73045 -8.45966,-1.82635 -12.67157,-1.29015 -8.4375,1.07415 7.4701,4.17128 8.90505,9.13431 8.91089,30.82 0.007,23.98625 -1.36637,27.69725 -10.39392,28.09687 -5.64308,0.24981 -13.56177,-2.16375 -40.060265,-12.21004 -6.912126,-2.62058 -19.793603,-8.55875 -25.019205,-11.53348 -1.03125,-0.58706 -3.5625,-1.86576 -5.625,-2.84157 -2.0625,-0.9758 -5.401969,-2.56504 -7.421042,-3.53164 -6.344391,-3.03729 -6.371733,-2.28577 -1.450903,39.87984 0.541572,4.64062 1.358121,12.65625 1.814552,17.8125 0.456432,5.15625 1.050372,10.00781 1.319867,10.78125 0.504816,1.4488 2.662975,25.88904 3.021634,34.21875 0.252209,5.85741 2.90343,24.56779 3.65308,25.78074 0.90432,1.46323 1.860124,18.70755 1.480971,26.71926 -0.122009,2.57812 0.395381,7.00781 1.149754,9.84375 0.754375,2.83594 1.864036,10.85156 2.465916,17.8125 0.601879,6.96094 1.692321,17.50781 2.423206,23.4375 1.502831,12.19253 4.234878,39.48403 9.807273,97.9687 2.535739,26.6138 5.740068,58.5921 7.656136,76.4063 0.47141,4.3828 1.209288,12.1875 1.639731,17.3438 1.773934,21.2498 4.170357,40.9801 6.286419,51.7575 1.377997,7.0184 2.251272,14.8144 2.257797,20.1563 0.01071,8.7743 3.778501,50.6566 5.560815,61.8135 0.527716,3.3034 1.580674,12.113 2.33991,19.5769 2.505609,24.6322 8.651734,42.1018 18.650344,53.011 5.92006,6.4592 35.80212,27.6668 47.50079,33.7118 14.98076,7.741 23.18451,11.6802 24.375,11.7044 0.77344,0.016 3.30469,0.9266 5.625,2.0243 2.32031,1.0976 6.32812,2.3048 8.90625,2.6824 2.57812,0.3776 8.0625,1.9596 12.1875,3.5157 4.125,1.556 10.66406,3.8735 14.53125,5.1499 3.86719,1.2764 10.19531,3.3935 14.0625,4.7047 7.05576,2.3923 26.75201,6.5715 46.875,9.9461 5.92969,0.9944 12.04687,2.2626 13.59375,2.8183 4.38022,1.5734 41.51977,6.4674 57.65625,7.5975 18.45374,1.2923 57.70957,2.6941 61.40625,2.1927 1.54687,-0.2098 11.25,-0.6125 21.5625,-0.8949 z m 193.40801,-44.1827 c -1.42314,-5.6973 3.6703,-36.8167 6.02593,-36.8167 1.29029,0 0.10636,18.1716 -1.67972,25.7813 -0.72614,3.0937 -1.32649,6.7334 -1.33411,8.0883 -0.0174,3.0998 -2.39328,5.4243 -3.0121,2.9471 z m -18.64916,-1.8838 c -2.09016,-5.4975 0.2314,-25.9652 3.15424,-27.8088 3.37776,-2.1307 3.82364,0.3344 2.6182,14.4748 -1.41855,16.6402 -3.06737,20.4489 -5.77244,13.334 z m 32.19427,-16.8563 c -1.61788,-0.5803 -1.5026,-8.7048 0.25199,-17.7597 0.78312,-4.0415 2.27279,-13.2544 3.31039,-20.4731 1.0376,-7.2188 2.68267,-18.3985 3.65571,-24.8438 1.6935,-11.2175 3.55092,-35.3897 3.09766,-40.3125 -0.11869,-1.2891 0.16558,-4.4531 0.6317,-7.0312 0.47102,-2.6053 0.5025,-6.5616 0.0709,-8.9063 -0.49808,-2.7056 -0.42409,-4.6445 0.20629,-5.4056 1.15379,-1.3932 3.1063,-14.0305 4.01717,-26.0006 0.35312,-4.6407 1.0557,-10.336 1.56127,-12.6563 2.03926,-9.3591 2.80752,-15.1012 3.63747,-27.1875 1.23805,-18.0291 2.32588,-27.4451 4.22406,-36.5625 4.83119,-23.2053 4.22195,-0.1657 -0.97922,37.0313 -0.79309,5.6718 -1.84187,15.5859 -2.33062,22.0312 -1.44888,19.1068 -4.43524,46.1175 -5.5602,50.2902 -0.57591,2.1362 -0.7987,4.5313 -0.49509,5.3226 0.30361,0.7911 0.041,6.2152 -0.58361,12.0534 -0.6246,5.8383 -1.26185,12.5135 -1.41611,14.8338 -0.15426,2.3203 -0.74474,8.2266 -1.31219,13.125 -0.56744,4.8984 -1.43761,13.322 -1.93373,18.7191 -0.49611,5.397 -1.30021,11.0923 -1.78689,12.6562 -0.48668,1.5639 -1.56765,10.3668 -2.40216,19.562 -1.78858,19.7079 -2.60023,22.6853 -5.86475,21.5143 z m -30.16631,-18.8869 c -0.61233,-1.1442 -0.64013,-6.2439 -0.0804,-14.7656 0.47022,-7.1599 1.10425,-19.346 1.40896,-27.0803 0.30471,-7.7344 0.98419,-21.2344 1.50996,-30 0.52576,-8.7657 1.34564,-25.6407 1.82197,-37.5 0.47631,-11.8594 1.28886,-28.5235 1.80566,-37.0313 0.5168,-8.5078 1.1762,-21.375 1.46534,-28.5937 0.28914,-7.2188 0.93084,-20.5079 1.426,-29.5313 1.10124,-20.0678 2.3201,-43.9595 4.16104,-81.5625 0.76993,-15.7266 1.82148,-34.71094 2.33678,-42.1875 0.82901,-12.02794 2.36783,-42.58641 3.37548,-67.03125 0.1913,-4.64063 0.78175,-15.60938 1.31212,-24.375 0.53037,-8.76563 1.58965,-29.01563 2.35396,-45 0.7643,-15.98438 1.81691,-35.8125 2.33914,-44.0625 1.07675,-17.0105 3.5814,-70.72997 3.49685,-75 -0.0951,-4.80562 1.93203,-17.51412 2.9573,-18.53939 4.3418,-4.3418 4.73274,4.78027 1.97978,46.19564 -1.0111,15.21094 -2.26503,37.14844 -2.78652,48.75 -0.52148,11.60156 -1.36845,25.52344 -1.88214,30.9375 -0.78807,8.30579 -3.34228,53.26196 -4.20792,74.0625 -0.90314,21.7018 -2.42504,48.081 -3.34161,57.92025 -0.58992,6.33272 -0.83381,12.13631 -0.54198,12.89681 0.29184,0.7605 0.14089,4.64944 -0.33544,8.64216 -0.47632,3.99272 -1.09019,13.58768 -1.36414,21.32198 -0.27396,7.7344 -1.13604,26.9297 -1.91573,42.6563 -0.7797,15.7266 -1.84635,38.5078 -2.37035,50.625 -0.524,12.1172 -1.16623,22.875 -1.42717,23.9063 -0.26094,1.0312 -0.9048,11.3671 -1.4308,22.9687 -0.526,11.6016 -1.34537,29.1094 -1.82084,38.9063 -0.47546,9.7968 -1.29918,28.7812 -1.8305,42.1875 -0.53132,13.4062 -1.42455,31.9687 -1.98495,41.25 -0.5604,9.2812 -1.18599,21.1427 -1.39017,26.359 -0.49414,12.6229 -2.44347,17.5253 -5.0396,12.6744 z m 19.52307,-17.5871 c -0.93315,-1.1244 -0.94355,-5.7301 -0.0512,-22.6786 0.61585,-11.6973 1.11405,-26.3302 1.10711,-32.5177 -0.007,-6.1875 0.56317,-18.211 1.26691,-26.7188 0.70373,-8.5078 1.34603,-18.2109 1.42734,-21.5625 0.0813,-3.3516 0.78971,-15.7969 1.57422,-27.6562 0.7845,-11.8594 1.80884,-28.5235 2.2763,-37.0313 0.46746,-8.5078 1.28173,-22.6406 1.8095,-31.4062 0.52777,-8.7657 1.39654,-24.1641 1.93059,-34.2188 0.53406,-10.0547 1.36773,-23.7656 1.8526,-30.4687 0.48486,-6.7032 1.13299,-18.0938 1.44028,-25.3126 0.30729,-7.2187 1.14631,-20.50776 1.86447,-29.5312 0.71816,-9.02344 1.56996,-21.67969 1.8929,-28.125 0.32293,-6.44531 1.18098,-19.94531 1.90679,-30 0.7258,-10.05469 1.54282,-24.39844 1.81561,-31.875 0.27278,-7.47656 0.72222,-15.49219 0.99875,-17.8125 0.27653,-2.32031 0.65415,-7.59704 0.83917,-11.72607 0.68474,-15.2818 2.54316,-40.47918 3.39323,-46.00697 0.48225,-3.13599 0.87683,-10.1577 0.87683,-15.6038 0,-5.44609 0.39179,-14.05998 0.87064,-19.14196 0.47885,-5.08197 1.11164,-14.51339 1.4062,-20.9587 2.22593,-48.70673 2.98307,-53.66867 7.49994,-49.15178 2.05821,2.0582 1.37168,19.81092 -3.18787,82.43303 -1.48681,20.42038 -3.65204,53.62531 -4.7072,72.1875 -0.52758,9.28125 -1.38773,22.78125 -1.91142,30 -0.5237,7.21875 -1.60167,23.46094 -2.39549,36.09375 -0.79383,12.63281 -1.85653,28.875 -2.36157,36.09375 -0.50504,7.21875 -1.29556,21.5625 -1.75673,31.875 -0.46117,10.31245 -1.4893,26.97655 -2.28475,37.03125 -1.57928,19.9627 -4.10402,62.0638 -4.83496,80.625 -0.25382,6.4453 -0.85375,14.4609 -1.33317,17.8125 -0.47943,3.3516 -1.10965,12.4219 -1.40049,20.1563 -0.29083,7.7343 -0.98252,16.0712 -1.53708,18.5265 -0.55457,2.4552 -0.77921,5.061 -0.49921,5.7906 0.57259,1.4922 -0.72561,30.9669 -2.21166,50.2141 -0.53744,6.9609 -1.16058,18.7734 -1.38475,26.25 -1.371,45.7258 -1.90787,49.577 -6.1918,44.4151 z M 558.6875,1056.1877 c -0.61873,-0.6185 -0.19755,-34.7933 0.5239,-42.5095 0.73597,-7.8717 2.27958,-9.9305 2.5062,-3.3429 0.0853,2.4796 0.24667,7.0397 0.35859,10.1334 0.49379,13.6487 -1.75496,37.352 -3.38869,35.719 z m 33.82685,-6.4221 c -0.008,-2.4492 0.40752,-4.4531 0.92315,-4.4531 1.19783,0 1.19783,5.6465 0,7.5 -0.65729,1.0171 -0.91276,0.1739 -0.92315,-3.0469 z m 0.2325,-8.1681 c -0.98902,-2.5245 -0.52955,-5.66 0.82942,-5.66 1.46658,0 1.9548,2.6322 0.99411,5.3597 l -0.919,2.609 -0.90453,-2.3087 z m -0.12385,-15.5203 c -3.65783,-15.4477 -1.52863,-95.92033 2.43311,-91.95859 1.83364,1.83364 1.90524,88.03579 0.0772,92.89609 l -1.40424,3.7335 -1.10602,-4.671 z m 93.30841,-57.98836 c -0.33878,-10.50422 -0.40005,-20.94562 -0.13615,-23.20312 0.26388,-2.2575 0.88032,-12.64581 1.36985,-23.08523 0.85113,-18.15075 1.99297,-24.67967 3.80378,-21.7497 2.29445,3.7125 1.62185,40.03765 -1.05715,57.09405 -0.53011,3.375 -0.91284,10.78228 -0.85051,16.46063 0.10943,9.96862 -0.3762,13.58203 -1.82535,13.58203 -0.37868,0 -0.9657,-8.59444 -1.30447,-19.09866 z m -77.49391,15.40397 c 0,-0.48515 0.42187,-1.1429 0.9375,-1.46156 0.51562,-0.31866 0.9375,0.0778 0.9375,0.88219 0,0.80381 -0.42188,1.46156 -0.9375,1.46156 -0.51563,0 -0.9375,-0.39694 -0.9375,-0.88219 z m 0.62111,-6.37125 c -0.77037,-1.2465 0.38468,-7.74656 1.37655,-7.74656 1.0501,0 1.03474,5.70141 -0.0199,7.36575 -0.45772,0.72234 -1.04394,0.88687 -1.35672,0.38081 z m 0.8313,-41.26219 c 0.37026,-16.37109 0.74697,-33.57756 0.83715,-38.2366 0.16495,-8.52158 0.82864,-11.2489 2.48787,-10.22344 1.59935,0.98845 0.16034,71.1198 -1.57142,76.58504 -1.96583,6.20401 -2.37982,-0.43574 -1.7536,-28.125 z m 16.33568,-12.92004 c -1.42175,-1.71309 -1.58792,-9.33334 -1.0318,-47.31433 0.36882,-25.18885 1.01654,-30.10314 3.52164,-26.71875 3.52763,4.76586 1.05445,78.30369 -2.48984,74.03308 z m 73.68698,-134.18952 c -1.10858,-7.75914 2.97109,-85.21195 4.72977,-89.79502 3.28487,-8.56022 3.89903,12.54468 1.28083,44.01396 -0.4719,5.67187 -1.3086,17.27344 -1.85936,25.78125 -0.55075,8.50781 -1.55437,17.57812 -2.23026,20.15625 l -1.2289,4.6875 -0.69208,-4.84394 z m -25.30289,-88.3104 c -2.6648,-4.31176 -0.96643,-18.87691 2.20116,-18.87691 2.2217,0 2.87793,1.78511 2.87143,7.81105 -0.009,8.44486 -2.85521,14.65364 -5.07259,11.06586 z m -24.8892,-3.81528 c -2.20766,-4.12506 0.31445,-12.24913 3.80274,-12.24913 1.95917,0 2.02791,0.27246 1.45399,5.76343 -0.80124,7.66588 -3.10435,10.50744 -5.25673,6.4857 z m 55.7386,-2.1101 c -0.7502,-2.98908 -0.33853,-5.48191 0.94717,-5.73542 1.29284,-0.25493 1.73317,4.5537 0.60207,6.57485 -0.81832,1.46229 -0.99565,1.3662 -1.54924,-0.83943 z m 5.95886,639.43977 c 10.00974,-5.1671 21.79174,-14.3479 25.15703,-19.6031 3.6645,-5.7224 10.03781,-14.2849 13.55063,-18.205 5.24614,-5.8545 9.94141,-15.4709 10.63629,-21.7843 0.33023,-3.0003 1.02917,-7.5645 1.5532,-10.1426 0.52403,-2.5782 1.33217,-8.0625 1.79587,-12.1875 0.4637,-4.125 1.26783,-11.2969 1.78695,-15.9375 0.51912,-4.6407 1.36375,-11.8125 1.87697,-15.9375 0.5132,-4.125 1.99865,-19.0387 3.301,-33.1415 1.30235,-14.1028 2.58231,-25.9885 2.84436,-26.4124 0.26206,-0.424 1.07893,-7.9064 1.81527,-16.6276 0.73635,-8.7211 1.77775,-19.4059 2.31423,-23.7439 0.53648,-4.3379 1.6226,-14.8481 2.41361,-23.3559 0.79101,-8.5078 1.84545,-18.8437 2.34321,-22.9687 1.19061,-9.8669 3.53045,-32.1655 4.1809,-39.8438 1.46522,-17.2966 2.50163,-27.1809 3.29308,-31.4063 0.93188,-4.97508 2.93229,-27.77282 3.33159,-37.9687 0.21384,-5.45981 2.05076,-24.74981 4.19594,-44.0625 0.42955,-3.86719 1.88168,-18.84375 3.22695,-33.28125 1.34526,-14.4375 2.90022,-28.52398 3.45545,-31.30329 0.55525,-2.77933 1.00221,-6.5762 0.99326,-8.4375 -0.009,-1.86132 0.58161,-6.54827 1.31234,-10.41546 0.73074,-3.86719 1.32868,-9.52064 1.32877,-12.56324 8e-5,-3.04259 0.60936,-11.05822 1.35393,-17.8125 1.87754,-17.03182 3.29649,-32.47886 3.79774,-41.34301 0.23326,-4.125 0.83704,-9.60938 1.34176,-12.1875 0.50471,-2.57813 1.3854,-10.80469 1.9571,-18.28125 0.5717,-7.47656 1.63972,-18.02344 2.37338,-23.4375 0.73367,-5.41406 1.78454,-15.96094 2.33528,-23.4375 0.55074,-7.47656 1.37458,-16.125 1.83075,-19.21875 1.29579,-8.78801 2.92449,-29.74198 2.35596,-30.31051 -0.65601,-0.65602 -7.14321,2.49889 -15.1885,7.38656 -3.47124,2.10886 -8.43527,4.40315 -11.03117,5.09843 -2.5959,0.69527 -7.46201,2.09973 -10.81357,3.12101 -3.35156,1.02128 -10.73438,2.99897 -16.40625,4.39485 -14.0893,3.46747 -14.43064,4.0745 -15.02249,26.71591 -0.16849,6.44531 -0.76846,16.99219 -1.33328,23.4375 -0.56481,6.44531 -1.42469,16.35937 -1.91082,22.03125 -0.48614,5.67187 -1.32946,14.74219 -1.87404,20.15625 -0.5446,5.41406 -1.59459,17.4375 -2.33333,26.71875 -3.22816,40.5575 -5.2924,63.90625 -8.45412,95.625 -0.71956,7.21875 -1.57006,18.1875 -1.88998,24.375 -0.31992,6.1875 -1.21686,16.52344 -1.99318,22.96875 -0.77634,6.44531 -1.77864,18.15328 -2.22736,26.01759 -0.44873,7.86441 -1.05323,16.09097 -1.34333,18.28125 -0.29011,2.19038 -1.16594,13.4746 -1.94627,25.07616 -0.78033,11.6016 -1.83159,23.625 -2.33611,26.7188 -0.50453,3.0937 -1.35203,11.9531 -1.88334,19.6875 -0.53131,7.7343 -1.59003,22.0781 -2.35269,31.875 -0.76267,9.7968 -1.79245,23.4795 -2.28842,30.4059 -0.49596,6.9263 -1.33614,16.6295 -1.86708,21.5625 -1.45489,13.5176 -3.64835,40.2601 -5.1956,63.3441 -0.76034,11.3437 -1.78724,23.1562 -2.28202,26.25 -0.49477,3.0937 -1.12136,9.6328 -1.39243,14.5312 -0.27108,4.8984 -1.37808,19.6641 -2.46001,32.8125 -1.08193,13.1484 -2.32225,30.2344 -2.75627,37.9688 -1.40379,25.0162 -3.52684,40.0512 -5.92109,41.9323 -4.19346,3.2944 1.03061,1.7273 10.44995,-3.1348 z M 116.58002,719.76562 c 2.15749,-17.96202 0.3251,-39.02985 -3.5573,-40.89987 -5.50403,-2.6511 -19.701185,-13.46733 -21.718895,-16.54675 -6.446105,-9.83799 -7.387958,-34.3133 -1.891563,-49.15479 7.159688,-19.33278 4.64941,-27.57307 -11.154221,-36.61498 -4.699383,-2.68873 -4.89115,-2.95957 -5.462306,-7.71477 -0.899798,-7.49132 -0.762994,-8.68163 1.266765,-11.02196 5.619679,-6.47954 -2.079592,-7.3498 -11.484375,-1.2981 -4.211358,2.70989 -4.332743,4.31964 -0.698779,9.26685 1.515006,2.0625 3.429412,4.67092 4.254236,5.79651 1.137563,1.55236 1.261208,2.49209 0.51207,3.89187 -1.600303,2.99019 0.436237,6.93679 6.105002,11.83084 7.413328,6.4002 9.43476,9.98354 10.171719,18.03106 l 0.617016,6.73779 -3.496115,3.86978 c -5.420751,6.00012 -6.891873,6.46417 -17.593947,5.54978 -11.251016,-0.9613 -11.974512,-0.64406 -15.599845,6.84 -1.52644,3.15116 -3.329202,6.39829 -4.006137,7.21587 -4.447997,5.3721 -3.671463,8.97296 2.458806,11.40171 1.638504,0.64916 3.529793,1.60249 4.202864,2.11852 2.029469,1.55595 23.750462,11.47196 28.776235,13.13686 9.610049,3.18353 14.396243,8.11066 7.878663,8.11066 -3.928775,0 -12.576453,-2.5415 -17.722413,-5.20851 -2.320313,-1.20255 -8.226563,-4.12414 -13.125,-6.49244 -11.695684,-5.65462 -15.949023,-8.28271 -18.548676,-11.461 -3.528376,-4.31375 -5.021643,-1.20119 -4.33411,9.03398 0.779206,11.5999 1.459611,12.5778 4.503426,6.47251 2.321056,-4.65556 3.871298,-2.6653 3.521929,4.52162 -0.394172,8.10858 1.671706,16.05257 4.994129,19.20409 4.227287,4.00983 1.687924,5.09099 -3.877964,1.65108 -4.036602,-2.49475 -6.370892,-1.86658 -4.91747,1.32334 2.003564,4.39734 48.518942,27.83033 55.244275,27.83033 0.544037,0 2.629889,0.83704 4.63522,1.86008 3.695001,1.88505 15.177911,5.45129 17.945531,5.57333 1.13468,0.0501 1.65699,-1.15689 2.10123,-4.85529 z M 95.064037,715.33587 C 86.141105,711.72864 88.856613,678.75 98.076572,678.75 c 1.500562,0 1.756125,2.41898 0.347531,3.28953 -6.188332,3.82459 -5.608245,22.07233 0.922669,29.02416 3.629578,3.86352 1.056218,6.43054 -4.282735,4.27218 z m 4.723576,-9.82122 c -2.179313,-3.32605 1.363967,-9.88965 5.338817,-9.88965 1.78448,0 4.56107,3.90652 4.56107,6.4172 0,5.46423 -6.98866,7.91554 -9.899887,3.47245 z M 49.6875,683.7099 c -4.757944,-1.74946 -6.204352,-7.19305 -2.8125,-10.5849 3.671348,-3.67135 8.106168,-0.80066 10.001429,6.47399 0.911079,3.49704 -2.912315,5.6834 -7.188929,4.11091 z m 22.963059,-34.25824 c -4.082771,-3.51185 -4.376224,-17.6894 -0.465182,-22.47423 2.358811,-2.88581 3.372743,-1.61716 4.663507,5.83507 0.580508,3.35156 1.449318,8.3797 1.930689,11.17364 1.289235,7.48289 -1.2015,9.70399 -6.129014,5.46552 z m 434.437271,33.1556 c 33.86839,-0.15316 69.55544,-1.94348 86.34967,-4.33194 5.41406,-0.76998 13.85156,-1.83582 18.75,-2.36852 4.89844,-0.53271 11.64844,-1.35095 15,-1.81832 3.35156,-0.46737 17.0625,-1.93807 30.46875,-3.26821 44.04639,-4.3702 58.24296,-6.58787 69.45052,-10.84899 1.31466,-0.49982 3.68498,-0.90878 5.26737,-0.90878 1.58238,0 4.40258,-0.39896 6.26709,-0.88658 1.86451,-0.48764 8.03064,-1.98125 13.70252,-3.31916 37.02956,-8.73469 48.98198,-13.28022 63.84327,-24.27972 3.37939,-2.50124 8.7487,-5.89064 11.93179,-7.53201 5.17213,-2.66701 6.25617,-3.76099 10.19625,-10.28973 6.13673,-10.16861 6.28988,-11.81263 2.89128,-31.03655 -0.48666,-2.75272 -2.70586,-6.09375 -4.04764,-6.09375 -0.37163,0 -0.64124,3.26953 -0.59914,7.26562 0.12386,11.75447 -8.75274,24.06555 -22.17484,30.75458 -3.70065,1.84426 -8.83785,4.58071 -11.41597,6.08099 -2.57813,1.50029 -10.59375,4.64617 -17.8125,6.99084 -7.21875,2.34468 -14.39063,4.71396 -15.9375,5.26506 -3.35783,1.19628 -5.42916,1.70651 -22.5,5.54241 -7.21875,1.62208 -14.34811,3.33483 -15.84302,3.80613 -1.49492,0.47128 -4.23711,0.866 -6.09375,0.87716 -1.85665,0.0111 -7.17261,0.88492 -11.81323,1.9417 -22.10628,5.03412 -40.87444,7.98234 -65.15625,10.23519 -5.92969,0.55014 -13.94531,1.63816 -17.8125,2.41782 -3.86719,0.77964 -13.35938,1.62301 -21.09375,1.87413 -7.73438,0.25111 -17.4375,0.86855 -21.5625,1.37207 -17.21402,2.10125 -26.81981,2.82091 -36.5625,2.73927 -20.78482,-0.17419 -35.41569,0.10673 -68.84102,1.32177 -18.78444,0.68283 -35.56783,0.92253 -37.29642,0.53267 -3.77103,-0.8505 -27.91264,-0.23834 -33.40629,0.84708 -5.71843,1.12984 -66.50482,0.5327 -81.23752,-0.79804 -18.60811,-1.68079 -19.8534,-1.74327 -46.40625,-2.32791 -13.40625,-0.29518 -26.90625,-0.98356 -30,-1.52973 -3.09375,-0.54618 -10.47656,-1.15279 -16.40625,-1.34806 -17.96345,-0.59151 -29.57868,-1.25907 -30.99787,-1.7815 -2.68606,-0.9888 -21.28287,-3.48115 -31.58881,-4.23354 -5.80549,-0.42384 -13.1883,-1.21916 -16.40625,-1.76738 -12.38629,-2.11017 -22.03004,-3.3523 -42.88207,-5.52326 -4.10498,-0.42738 -7.99595,-1.41053 -9.34923,-2.3623 -4.7503,-3.34096 -7.52577,-2.26009 -7.52577,2.9308 0,6.48793 2.11981,8.79004 10.02551,10.88768 3.50941,0.93117 7.11676,2.06851 8.01635,2.52744 3.73953,1.90773 23.57992,5.57823 34.92689,6.46154 6.70312,0.5218 14.92969,1.5403 18.28125,2.26333 3.35156,0.72303 9.89062,1.5767 14.53125,1.89704 4.64062,0.32033 13.28906,1.39738 19.21875,2.39343 5.92969,0.99604 13.84801,1.81323 17.59627,1.81597 9.10748,0.007 45.3019,2.65085 51.77873,3.78267 13.42072,2.34528 170.23193,6.04362 193.02533,4.55244 4.84363,-0.31688 23.40613,-0.64216 41.25,-0.72285 z m -7.79239,-26.5837 c 0.54484,-0.33674 6.65673,-0.85025 13.58197,-1.14115 6.92524,-0.29089 21.19481,-0.96617 31.71018,-1.50061 10.51537,-0.53444 20.27252,-0.71832 21.68256,-0.40863 1.41004,0.3097 11.15812,-0.30242 21.66241,-1.36027 10.50428,-1.05785 25.63775,-2.56599 33.62994,-3.35143 15.66674,-1.53966 29.30202,-3.29454 47.8125,-6.15354 6.44531,-0.99551 16.35938,-2.2358 22.03125,-2.75623 32.84109,-3.01331 55.44598,-7.97255 81.26944,-17.82953 6.54193,-2.49711 13.50287,-4.80711 15.46875,-5.13335 8.38051,-1.39076 27.55467,-11.48927 30.32464,-15.97116 5.41472,-8.76121 -9.44773,-23.59018 -29.56283,-29.49623 -5.35156,-1.57129 -24.3937,-6.82619 -29.0625,-8.02013 -6.19936,-1.58536 -21.2015,-5.52728 -27.65625,-7.26688 -2.83594,-0.7643 -8.29972,-1.86953 -12.14172,-2.45605 -3.84202,-0.58652 -11.6467,-2.31033 -17.34375,-3.83069 -5.69706,-1.52037 -13.94422,-3.19169 -18.32703,-3.71406 -9.88385,-1.17801 -16.92281,-2.24851 -27.1875,-4.13474 -4.38281,-0.80538 -10.97447,-1.4721 -14.64813,-1.4816 -3.67366,-0.009 -11.68928,-0.84345 -17.8125,-1.85321 -11.29805,-1.86314 -23.83713,-3.056 -50.03937,-4.76033 -7.99219,-0.51985 -17.98334,-1.42131 -22.20257,-2.00322 -4.21922,-0.58193 -10.54734,-0.82264 -14.0625,-0.53492 -3.51515,0.28771 -12.08649,0.13441 -19.04743,-0.34068 -23.72798,-1.61943 -106.32638,-2.15933 -107.53511,-0.7029 -0.73986,0.89148 -1.18261,13.62521 -1.46231,42.05642 -0.3337,33.92193 -0.6457,41.40829 -1.85573,44.52781 l -1.45458,3.75 -1.49542,-3.46884 c -1.28144,-2.97249 -1.52995,-9.44491 -1.73676,-45.23366 l -0.24134,-41.76481 -4.21875,-0.15213 c -7.6882,-0.27726 -16.25543,-0.1337 -29.53125,0.49485 -7.21875,0.34177 -20.46536,0.84491 -29.43692,1.11809 -8.97155,0.27317 -16.98717,0.82897 -17.8125,1.23512 -0.82532,0.40614 -6.70749,0.81844 -13.07151,0.91621 -13.29136,0.20421 -17.68558,1.56515 -16.5615,5.12931 0.35358,1.1211 1.0139,9.99606 1.46738,19.72213 0.45348,9.72607 1.07151,18.46199 1.37339,19.41314 0.55021,1.73354 1.51571,13.51478 3.25995,39.77809 2.40221,36.17068 2.37823,36.09375 11.25046,36.09375 9.26258,0 11.39216,-16.18189 8.38969,-63.75 -2.43247,-38.53738 -2.16794,-53.4375 0.94867,-53.4375 1.08159,0 1.88288,3.54729 1.90592,8.4375 0.011,2.32031 0.40974,6.75 0.88625,9.84375 0.4765,3.09375 1.14526,9.84375 1.48612,15 0.34088,5.15625 0.77731,11.27344 0.96987,13.59375 0.19255,2.32031 0.49469,19.07955 0.67141,37.24275 0.17673,18.1632 0.60127,33.30395 0.94342,33.64611 2.44833,2.44831 168.93852,4.38484 172.78159,2.0097 z M 405.9375,623.49283 c 0,-0.48519 0.42187,-1.14291 0.9375,-1.46158 0.51562,-0.31867 0.9375,0.0783 0.9375,0.88217 0,0.80387 -0.42188,1.46158 -0.9375,1.46158 -0.51563,0 -0.9375,-0.39698 -0.9375,-0.88217 z m -112.11217,28.99081 c 1.53929,-1.54459 1.00726,-32.25056 -0.77004,-44.44371 -0.82103,-5.63272 -1.49279,-12.4107 -1.49279,-15.06219 0,-2.65148 -0.40673,-7.11321 -0.90383,-9.91493 -2.64872,-14.92826 -2.95125,-39.43056 -0.55668,-45.08749 0.99421,-2.34875 -2.38109,-2.98659 -8.52655,-1.6113 l -5.28455,1.18264 0.78478,13.17979 c 0.43163,7.24889 0.87125,15.71105 0.97692,18.8048 0.33036,9.6722 1.43242,18.48618 3.22356,25.78125 1.37254,5.5902 1.82888,12.20393 2.2266,32.27003 0.37702,19.02174 0.79623,25.43851 1.70187,26.04962 1.48659,1.00312 7.24042,0.23656 8.62071,-1.14851 z m -17.67712,-23.18677 c -0.72423,-25.92634 -1.51306,-36.82876 -3.67988,-50.85937 -0.75648,-4.89844 -1.91897,-15.98239 -2.58331,-24.63101 l -1.20787,-15.72476 -7.07295,0.5094 c -3.89012,0.28017 -10.44795,0.92856 -14.57295,1.44086 -4.125,0.5123 -12.98438,1.5713 -19.6875,2.35333 -6.70313,0.78202 -15.14063,1.84568 -18.75,2.36369 -3.60938,0.51801 -10.48073,1.2804 -15.26968,1.69421 -11.85641,1.02451 -12.13426,3.78109 -5.77612,57.30678 1.0417,8.7695 0.65665,37.74836 -0.55604,41.84732 -1.23134,4.162 26.79735,6.83853 80.55999,7.69286 l 9.27065,0.14732 -0.67434,-24.14062 z m -97.11202,14.76563 c 0.31285,-1.28906 0.39834,-18.16406 0.18999,-37.5 -0.53657,-49.79428 -0.54322,-53.68674 -0.0952,-55.74533 0.53923,-2.47761 -1.93246,-2.88936 -8.45889,-1.40915 -8.72197,1.97817 -9.16853,2.49914 -9.78537,11.41589 -0.50304,7.27175 -1.5656,25.3707 -1.61199,27.45734 -0.0114,0.51562 0.47074,5.15625 1.07156,10.3125 0.60082,5.15625 0.91135,14.85937 0.69007,21.5625 -0.22129,6.70312 -0.15827,15.14062 0.14003,18.75 l 0.54235,6.5625 3.75,0.59055 c 8.13267,1.28072 12.94386,0.57263 13.56744,-1.9968 z m -25.79793,-12.1074 c 0.36667,-6.14344 0.37646,-13.49268 0.0217,-16.33163 -0.35471,-2.83896 -0.70597,-17.7461 -0.78059,-33.12699 l -0.13567,-27.96523 -3.58364,0.28343 c -1.971,0.1559 -4.62065,0.67771 -5.88811,1.15961 l -2.30448,0.87616 0.50843,26.96539 c 0.27962,14.83098 0.92217,30.55135 1.42787,34.93416 0.50569,4.38281 0.92265,10.99721 0.92656,14.69866 0.008,7.75193 1.21089,9.67634 6.04738,9.67634 l 3.09382,0 0.66668,-11.1699 z m -18.27175,6.54497 c 1.04514,-1.95286 0.92832,-5.17975 -1.34512,-37.1578 -0.80898,-11.37894 -1.26763,-25.61722 -1.01924,-31.64063 l 0.45164,-10.95164 -2.66211,0 c -4.47968,0 -4.59356,0.7374 -3.69201,23.90625 0.46147,11.85937 0.73575,25.35937 0.60951,30 -0.18375,6.75503 -0.0954,23.5554 0.14174,26.95312 0.1135,1.62615 6.56093,0.67452 7.51559,-1.1093 z m -17.52653,-1.24328 c 0.24919,-0.64938 0.007,-10.07556 -0.5401,-20.94706 -0.63571,-12.65218 -0.67833,-22.26545 -0.1184,-26.70992 2.21007,-17.54259 -0.0219,-30.20446 -4.71878,-26.76999 -1.98842,1.45398 -1.96709,1.1674 -1.58131,21.23268 0.13383,6.96094 -0.042,21.48327 -0.39079,32.27186 -0.59106,18.28358 -0.51862,19.70007 1.06683,20.85938 2.15275,1.57413 5.68907,1.60963 6.28255,0.0631 z m -79.4898,-2.87812 c 5.092826,-7.77265 4.910052,-13.55098 -0.491587,-15.54138 -4.78661,-1.76377 -6.272149,-5.06839 -2.698519,-6.00291 1.55926,-0.40775 1.869388,-0.9386 1.303714,-2.23157 -1.748476,-3.99654 -1.57012,-8.2618 0.420821,-10.06357 2.457957,-2.22441 2.484154,-4.45536 0.07789,-6.63299 -2.215582,-2.00508 -2.410721,-3.28125 -0.501735,-3.28125 4.336793,0 4.166215,-13.08945 -0.216382,-16.6043 -2.527939,-2.02741 -9.594383,3.07095 -9.594383,6.92225 0,1.56765 -1.181648,2.91409 -4.213658,4.80126 -8.394302,5.22474 -12.9992955,16.43807 -10.229239,24.90857 5.423843,16.58548 21.350801,31.03982 26.143077,23.72589 z m 65.53022,-4.91151 c 0.33745,-2.87118 0.33246,-5.67514 -0.0111,-6.23101 -0.34354,-0.55587 -0.55082,-3.26922 -0.46062,-6.02966 0.14761,-4.51722 -1.27084,-7.08138 -2.12816,-3.84712 -4.451522,16.79344 -4.360537,21.32813 0.4279,21.32813 1.19286,0 1.70234,-1.22454 2.17198,-5.22034 z M 66.949001,606.35651 c 1.695995,-4.84257 -4.148993,-8.33266 -8.047056,-4.80496 -2.364529,2.13987 -2.151163,3.58778 0.86368,5.86097 3.369004,2.54023 6.06256,2.14426 7.183376,-1.05601 z M 102.1875,573.25183 c 0,-6.9638 -1.31066,-8.34474 -5.508581,-5.80396 -4.548687,2.75308 -4.643416,4.02111 -0.609057,8.15267 5.224898,5.35077 6.117638,5.00802 6.117638,-2.34871 z m 720.99913,5.15269 c 2.48292,-1.32882 2.274,-4.30517 -0.53665,-7.64544 -2.86103,-3.40015 -2.21608,-4.80949 1.97691,-4.31999 l 3.15543,0.36839 -2.09428,-2.24992 c -2.35535,-2.53037 -17.56607,-10.48197 -20.12243,-10.51927 -0.91265,-0.0133 -4.61249,-1.08997 -8.22186,-2.39258 -3.60938,-1.30262 -9.51563,-3.16929 -13.125,-4.14816 -13.96891,-3.78841 -22.64845,-6.43951 -26.25,-8.01785 -3.66555,-1.60641 -12.15262,-3.94166 -23.4375,-6.44892 -20.07786,-4.46088 -24.1996,-5.1422 -27.97663,-4.6245 -2.80982,0.38513 -4.94708,0.092 -6.97508,-0.95675 -1.60816,-0.83162 -4.85386,-1.51203 -7.21265,-1.51203 -2.35881,0 -6.68936,-0.84375 -9.62344,-1.875 -2.93409,-1.03125 -7.44908,-1.875 -10.03328,-1.875 -2.58422,0 -7.87229,-0.61241 -11.75125,-1.36091 -3.87897,-0.74851 -12.53705,-1.81886 -19.24017,-2.37856 -6.70313,-0.55971 -15.14063,-1.40219 -18.75,-1.8722 -3.60938,-0.47 -9.72656,-0.88653 -13.59375,-0.9256 -3.86719,-0.0391 -8.92969,-0.54533 -11.25,-1.12498 -2.32031,-0.57966 -9.07031,-1.13612 -15,-1.23659 -9.74267,-0.16509 -40.327,-2.43799 -50.03659,-3.71852 -2.12831,-0.28069 -11.46341,-0.70936 -20.74466,-0.95261 -9.28125,-0.24324 -24.67969,-0.76997 -34.21875,-1.17052 -26.59712,-1.11681 -76.73689,-0.74152 -88.59375,0.66312 -10.54601,1.24935 -19.52606,1.77257 -39.375,2.29416 -6.1875,0.16259 -15.46875,0.78363 -20.625,1.38009 -5.15625,0.59647 -15.26682,1.28447 -22.46794,1.5289 -7.20112,0.24444 -16.27144,1.10221 -20.15625,1.90617 -3.88482,0.80395 -8.75081,1.45144 -10.81331,1.43886 -2.0625,-0.0126 -6.49219,0.36539 -9.84375,0.83993 -3.35156,0.47453 -10.3125,1.30655 -15.46875,1.84893 -5.15625,0.54239 -15.07031,1.58755 -22.03125,2.32259 -6.96094,0.73503 -15.82031,1.60726 -19.6875,1.93826 -3.86719,0.331 -11.03906,1.39796 -15.9375,2.37101 -11.34543,2.25372 -24.88554,4.53488 -33.28125,5.60702 -3.60938,0.46092 -7.91062,1.24095 -9.55831,1.7334 -1.64769,0.49246 -5.86644,1.16905 -9.375,1.50354 -3.50856,0.33449 -8.91044,1.1768 -12.00419,1.8718 -3.09375,0.69499 -9.42187,1.54209 -14.0625,1.88244 -18.922144,1.38775 -22.03125,3.13945 -22.03125,12.41262 0,7.65347 0.415207,7.79312 13.44861,4.52337 5.70386,-1.43097 12.49961,-2.92797 15.10165,-3.32667 2.60205,-0.39871 9.58255,-1.85075 15.51224,-3.22677 5.92969,-1.37602 14.50816,-3.11866 19.06327,-3.87254 4.5551,-0.75387 9.40666,-1.93985 10.78125,-2.6355 1.37458,-0.69565 8.40548,-1.95787 15.62423,-2.80494 20.38484,-2.39202 27.6642,-3.42756 33.75,-4.80118 3.09375,-0.69829 9.21094,-1.52344 13.59375,-1.83368 9.23358,-0.65358 32.95447,-2.77978 52.5,-4.70579 7.47656,-0.73673 19.92187,-1.80606 27.65625,-2.37627 7.73437,-0.57021 17.85937,-1.40692 22.5,-1.85935 4.64062,-0.45242 15.82031,-0.8258 24.84375,-0.82972 9.02344,-0.004 21.04687,-0.45465 26.71875,-1.00162 16.43185,-1.58461 75.18126,-2.30608 87.65625,-1.07646 5.92969,0.58447 25.96875,1.47502 44.53125,1.979 32.74393,0.88902 49.76871,1.77302 73.125,3.79698 24.67082,2.13788 29.67896,2.63531 45.46875,4.51617 9.02344,1.07486 21.46875,2.35874 27.65625,2.85307 6.1875,0.49433 14.20312,1.51804 17.8125,2.27489 3.60937,0.75685 12.46875,2.29014 19.6875,3.40732 11.32939,1.75333 31.99425,6.60545 60,14.08802 21.59144,5.7688 33.47446,10.60391 51.5625,20.98038 7.99853,4.58849 8.95244,4.85942 11.78038,3.34596 z m -33.47562,-40.98265 c -1.27811,-4.09457 -0.61409,-18.88907 0.9553,-21.28427 9.80494,-14.96423 5.62129,-34.976 -8.01369,-38.33217 -5.82696,-1.43428 -7.08969,1.32767 -1.83305,4.00941 5.71393,2.91503 8.21241,6.59357 9.54572,14.05432 2.08112,11.64526 -2.41988,18.98646 -4.81676,7.8562 -1.43754,-6.67541 -4.32318,-12.7255 -5.83325,-12.23013 -1.92411,0.6312 -1.81206,6.33845 0.21704,11.05523 5.64956,13.13276 -3.71942,21.81126 -18.1768,16.83719 -7.0682,-2.43182 -11.89443,6.60036 -4.95865,9.28 1.16016,0.44823 3.79688,1.46628 5.85938,2.26234 2.0625,0.79606 6.91342,2.38627 10.77982,3.53382 3.86639,1.14754 8.71795,2.85336 10.78125,3.79072 5.41071,2.45811 6.47074,2.29744 5.49369,-0.83266 z m -682.36726,-5.49318 c 15.59462,-3.37045 17.38056,-3.73601 29.0625,-5.94873 5.67187,-1.07433 13.26562,-2.57079 16.875,-3.32547 3.60937,-0.75468 10.32836,-1.82242 14.93107,-2.37274 4.60273,-0.55033 8.62873,-1.16138 8.94668,-1.35788 0.72933,-0.45075 16.58515,-2.87037 27.68475,-4.22473 4.64062,-0.56624 11.17969,-1.42583 14.53125,-1.91022 3.35156,-0.48438 13.05469,-1.52348 21.5625,-2.30913 35.16711,-3.24747 43.92792,-4.22504 46.44682,-5.18271 1.45686,-0.55391 13.43435,-1.39903 26.61663,-1.87807 13.18229,-0.47902 31.56155,-1.2991 40.8428,-1.82237 46.13738,-2.60121 169.63721,-2.30738 176.82787,0.4207 0.71342,0.27066 12.89869,1.11951 27.07838,1.88632 53.11515,2.87238 100.99648,7.98706 114.50082,12.23099 2.38952,0.75094 6.95242,1.36535 10.13977,1.36535 3.18735,0 6.58413,0.42223 7.54839,0.9383 0.96427,0.51605 6.94825,1.15297 13.29774,1.41537 6.3495,0.2624 13.44297,0.90544 15.76328,1.42898 11.89127,2.68311 22.48314,3.96092 23.79661,2.87084 1.81513,-1.50642 1.86913,-14.50101 0.0747,-17.97111 -1.1984,-2.31745 -1.15601,-2.5825 0.48148,-3.0107 1.90476,-0.49811 2.56906,-9.30474 0.86742,-11.49944 -1.73106,-2.23266 -2.07963,-8.80463 -0.49914,-9.41113 0.835,-0.32042 1.32484,-0.89542 1.08854,-1.27777 -0.23631,-0.38235 -0.69933,-9.09205 -1.02893,-19.35489 -0.3296,-10.26283 -0.76928,-18.94008 -0.97706,-19.28275 -0.20778,-0.34268 0.0819,-0.77631 0.64391,-0.96362 1.30082,-0.4336 -0.45867,-32.66267 -1.93361,-35.41862 -0.55095,-1.02946 -1.20569,-6.77721 -1.45499,-12.77278 -0.24929,-5.99557 -0.62609,-11.18069 -0.83733,-11.52249 -0.48888,-0.79101 -2.37803,-17.29641 -2.95782,-25.84228 -0.87993,-12.96974 -4.54406,-31.23793 -15.61615,-77.85716 -2.08184,-8.76563 -6.46828,-23.4336 -9.74763,-32.59551 -3.2794,-9.1619 -5.96252,-16.86319 -5.96252,-17.11397 0,-0.25078 -1.08473,-2.66874 -2.41053,-5.37324 -1.32578,-2.70451 -3.6138,-7.8704 -5.08446,-11.47978 -3.59452,-8.82182 -8.62515,-18.96064 -11.53632,-23.25048 -1.31166,-1.93285 -3.49261,-6.35158 -4.84654,-9.81939 -10.54518,-27.00934 -52.78896,-79.471905 -71.92711,-89.326323 -1.19008,-0.612786 -3.23862,-2.114486 -4.55232,-3.337112 C 603.4235,83.665729 592.84533,76.875 591.87533,76.875 c -0.21863,0 -3.43705,-2.012022 -7.15204,-4.471162 C 581.00829,69.9447 574.38281,66.208063 570,64.100201 555.9514,57.343697 538.66507,48.752152 536.25,47.325996 505.57024,29.208825 451.05995,19.928507 415.78125,26.816319 c -4.125,0.805365 -12.14063,1.822502 -17.8125,2.260305 -21.68653,1.67395 -43.58109,6.403997 -61.12655,13.205626 -5.56789,2.158439 -12.86564,4.893743 -16.2172,6.078453 -14.36154,5.076519 -38.7714,17.197224 -40.26903,19.995572 -0.51233,0.957301 -1.94691,1.995397 -3.18797,2.306881 -1.24105,0.311484 -2.47831,1.414699 -2.74946,2.451589 C 274.09049,74.369213 273.14135,75 271.5818,75 c -1.28906,0 -5.44183,2.054099 -9.2284,4.564664 -3.78656,2.510566 -10.29403,6.556547 -14.46105,8.991069 -4.16702,2.434524 -12.31874,8.606983 -18.11492,13.716587 -5.7962,5.1096 -10.90953,9.29018 -11.36296,9.29018 -0.45342,0 -2.07616,1.81939 -3.60612,4.04309 -1.52994,2.2237 -10.99817,12.26917 -21.04051,22.32324 -17.80935,17.8302 -18.36947,18.50951 -22.75568,27.59754 -2.4733,5.12456 -6.23215,11.42675 -8.353,14.00488 -2.12085,2.57812 -4.8664,6.16406 -6.10122,7.96875 -1.23481,1.80469 -2.76662,3.60351 -3.40403,3.99739 -4.87928,3.01505 -23.01744,46.60896 -28.37192,68.19011 -0.95948,3.86719 -2.88514,9.98437 -4.27923,13.59375 -2.28019,5.90355 -9.82843,33.71729 -14.12051,52.03125 -0.90631,3.86719 -2.24197,8.50429 -2.96812,10.30466 -0.72614,1.80038 -1.53448,6.65194 -1.7963,10.78125 -0.26183,4.12932 -0.88316,9.19534 -1.38073,11.25784 -1.053097,4.36514 -3.508766,21.32181 -4.073084,28.125 -0.213854,2.57812 -0.87691,6.79687 -1.47346,9.375 -0.59655,2.57812 -1.188798,7.90109 -1.316112,11.8288 -0.127314,3.92772 -0.776455,8.457 -1.442536,10.06506 -0.759597,1.83383 -0.950473,4.06444 -0.512032,5.9837 0.84909,3.71686 0.821539,29.69144 -0.04451,41.96619 -0.722316,10.23755 -0.702381,15.60216 0.08013,21.5625 0.547521,4.17043 0.676474,13.07713 0.274858,18.98437 -0.239842,3.52778 1.051152,25.9156 1.594798,27.65625 0.492472,1.57681 1.068538,1.52445 14.018603,-1.27443 z"
     id="path4192"
     inkscape:connector-curvature="0" />
</svg>
